<svg xmlns="http://www.w3.org/2000/svg" viewBox="0 0 430 96" role="img" aria-labelledby="title desc">
  <title id="title">CEMAL modernized logo</title>
  <desc id="desc">Modern CEMAL wordmark with simplified angular C mark.</desc>
  <rect x="0" y="0" width="96" height="96" rx="16" fill="#101820"/>
  <path d="M61 17 29 17 13 48 29 79 61 79 52 62 38 62 30 48 38 34 52 34 61 17Z" fill="#f7f5f0"/>
  <path d="M43 17 59 48 43 79 60 79 78 48 60 17 43 17Z" fill="#4ec6df"/>
  <path d="M61 17h18v17H70l-9-17Z" fill="#e8a332"/>
  <path d="M43 17 59 48 43 79" fill="none" stroke="#0e5bd8" stroke-width="5" stroke-linejoin="round"/>
  <g transform="translate(122 25) skewX(-7)">
    <text x="0" y="38" fill="#101820" font-family="Arial Black, Inter, Arial, sans-serif" font-size="43" font-weight="900" letter-spacing="1.5">CEMAL</text>
    <path d="M1 52h218" stroke="#d7dde2" stroke-width="1.5"/>
    <text x="1" y="68" fill="#5e6973" font-family="Inter, Arial, sans-serif" font-size="11" font-weight="700" letter-spacing="1.7">MOLD &amp; ENGINEERING</text>
  </g>
</svg>
